<?xml version="1.0" encoding="UTF-8" standalone="no"?>
<!-- Created with Inkscape (http://www.inkscape.org/) -->

<svg
   width="256"
   height="256"
   viewBox="0 0 67.733332 67.733334"
   version="1.1"
   id="svg5"
   sodipodi:docname="icon.svg"
   xml:space="preserve"
   inkscape:version="1.2.2 (b0a8486541, 2022-12-01)"
   inkscape:export-filename="icon64.png"
   inkscape:export-xdpi="24"
   inkscape:export-ydpi="24"
   xmlns:inkscape="http://www.inkscape.org/namespaces/inkscape"
   xmlns:sodipodi="http://sodipodi.sourceforge.net/DTD/sodipodi-0.dtd"
   xmlns:xlink="http://www.w3.org/1999/xlink"
   xmlns="http://www.w3.org/2000/svg"
   xmlns:svg="http://www.w3.org/2000/svg"><sodipodi:namedview
     id="namedview7"
     pagecolor="#ffffff"
     bordercolor="#000000"
     borderopacity="0.25"
     inkscape:showpageshadow="2"
     inkscape:pageopacity="0.0"
     inkscape:pagecheckerboard="0"
     inkscape:deskcolor="#d1d1d1"
     inkscape:document-units="mm"
     showgrid="false"
     inkscape:zoom="2.6999878"
     inkscape:cx="72.037362"
     inkscape:cy="197.77867"
     inkscape:window-width="2560"
     inkscape:window-height="1368"
     inkscape:window-x="2560"
     inkscape:window-y="0"
     inkscape:window-maximized="1"
     inkscape:current-layer="layer1"
     showguides="true"><sodipodi:guide
       position="312.70943,-251.91749"
       orientation="0,-1"
       id="guide6143"
       inkscape:locked="false" /></sodipodi:namedview><defs
     id="defs2"><linearGradient
       inkscape:collect="always"
       id="linearGradient4639"><stop
         style="stop-color:#72cfcc;stop-opacity:1;"
         offset="0"
         id="stop4635" /><stop
         style="stop-color:#102744;stop-opacity:1;"
         offset="1"
         id="stop4637" /></linearGradient><clipPath
       clipPathUnits="userSpaceOnUse"
       id="clipPath9096"><circle
         style="display:inline;opacity:0.4;fill:#0000ff;stroke:none;stroke-width:29.8285;stroke-dasharray:none"
         id="circle9098"
         cx="396.8504"
         cy="561.25983"
         r="194.18433" /></clipPath><linearGradient
       inkscape:collect="always"
       xlink:href="#linearGradient4639"
       id="linearGradient4649"
       gradientUnits="userSpaceOnUse"
       gradientTransform="matrix(0.40324904,0,0,0.40324904,-4.879226,-47.133011)"
       x1="90.773254"
       y1="185.57278"
       x2="102.18065"
       y2="222.83936" /></defs><g
     inkscape:label="Layer 1"
     inkscape:groupmode="layer"
     id="layer1"
     style="display:inline"><g
       id="g971"
       transform="matrix(2.7204773,0,0,2.7204773,-53.60469,-69.745309)"><path
         id="path4645"
         style="opacity:1;fill:url(#linearGradient4649);fill-opacity:1;stroke-width:2.82274"
         d="m 32.152947,50.534749 c 0,0 -5.003599,-3.25486 -7.098768,-5.35003 -2.095172,-2.09517 -5.35003,-7.09876 -5.35003,-7.09876 0,0 3.254858,-5.0036 5.35003,-7.09877 2.095169,-2.09517 7.098768,-5.35003 7.098768,-5.35003 0,0 5.003594,3.25486 7.098774,5.35003 2.09517,2.09517 5.35002,7.09877 5.35002,7.09877 0,0 -3.25485,5.00359 -5.35002,7.09876 -2.09518,2.09517 -7.098774,5.35003 -7.098774,5.35003 z"
         sodipodi:nodetypes="czczczczc" /><path
         id="path4647"
         style="fill:#ffffff;fill-opacity:1;stroke:none;stroke-width:2.19024;stroke-linecap:round;stroke-linejoin:round;stroke-miterlimit:2.4;stroke-dasharray:none;stroke-dashoffset:8.08819"
         d="m 34.188611,28.112496 c -3.37684,0.0399 -6.775683,2.207652 -7.607805,5.584672 -0.719661,2.632077 0.814994,5.648465 3.427181,6.510714 1.965522,0.763529 4.496164,-0.346882 4.967656,-2.4691 0.403553,-0.59867 -0.394156,-3.217783 -0.751375,-1.593185 -0.08153,1.748919 -2.318778,2.496028 -3.61425,1.474329 -1.629425,-1.067389 -1.516501,-3.527733 -0.216524,-4.806942 1.692127,-1.873518 4.931046,-1.550665 6.429065,0.403593 1.826944,2.152668 1.236485,5.532794 -0.757577,7.365442 -2.154822,2.118108 -5.353656,1.907307 -8.130253,2.220536 -1.368519,0.120649 -2.720804,0.54944 -3.889168,1.263489 0.351943,0.418957 0.694128,0.804199 1.008724,1.118795 0.261235,0.261236 0.567491,0.54067 0.90382,0.829407 1.086604,-0.60956 2.306237,-1.019343 3.490743,-1.261939 2.84392,-0.497569 5.924264,-1.102477 7.998479,-3.290755 2.738898,-2.640657 2.72956,-7.446773 0.05994,-10.127031 h 5.17e-4 c -0.258698,-0.382189 0.902919,0.354997 0.966349,0.422197 2.544938,1.807158 3.396655,5.365247 2.284615,8.225854 -1.189792,3.391217 -4.507996,5.450502 -7.840348,6.335531 -1.605059,0.383736 -3.324584,0.713394 -4.88704,1.337903 0.741165,0.553516 1.48236,1.081259 2.132686,1.53324 2.016703,-0.507375 4.232127,-0.809662 6.310726,-1.683619 1.053339,-0.793682 2.07765,-1.62135 2.777092,-2.320788 0.97266,-0.97266 2.192734,-2.569725 3.223576,-4.004407 0.109194,-0.31211 0.208614,-0.634789 0.299723,-0.968416 0.42408,-1.552945 0.383198,-3.240669 -0.03256,-4.846733 -1.080843,-1.522215 -2.43303,-3.320314 -3.490743,-4.378027 -0.807452,-0.807448 -2.046408,-1.786379 -3.264917,-2.685624 -0.58889,-0.13482 -1.193146,-0.196286 -1.79834,-0.189136 z" /></g></g><circle
     style="display:none;fill:#888a85;stroke:none;stroke-width:5.56608;stroke-dasharray:none;stroke-opacity:1"
     id="path41272"
     cx="65.990456"
     cy="139.79634"
     r="34.913532" /><g
     inkscape:groupmode="layer"
     id="layer4"
     inkscape:label="icon" /><g
     inkscape:groupmode="layer"
     id="layer2"
     inkscape:label="Layer 2"
     style="display:none"
     sodipodi:insensitive="true"><circle
       style="display:inline;opacity:0.4;fill:#d40000;stroke:none;stroke-width:7.89213;stroke-dasharray:none"
       id="path4690"
       cx="105"
       cy="148.5"
       r="51.377937" /></g></svg>
